<?xml version="1.0" encoding="UTF-8"?>
<svg version="1.1" xmlns="http://www.w3.org/2000/svg" width="2133" height="2133">
<path d="M0 0 C1.17949219 0.35191406 2.35898437 0.70382812 3.57421875 1.06640625 C23.83828873 7.70425836 39.60094061 21.20854785 50 39.75 C50.76473633 41.10593262 50.76473633 41.10593262 51.54492188 42.48925781 C64.55114663 66.19732577 70 91.12178026 70 118 C53.83 118 37.66 118 21 118 C21 114.37 21 110.74 21 107 C19.71715449 89.30822012 13.63542614 73.41522364 2 60 C-10.95666864 49.06639014 -24.62228109 46.96853644 -41 48 C-53.06597393 49.82861419 -64.52686635 55.71368097 -71.91015625 65.54296875 C-82.52329945 81.51901659 -85.81686574 100.42345949 -82.3125 119.30859375 C-77.44194954 139.13579291 -65.7730253 151.06401543 -48.79052734 161.37744141 C-39.0965429 167.01403113 -29.01009125 171.95630809 -19 177 C8.8242869 191.06944406 8.8242869 191.06944406 21 200 C21.5554248 200.40283203 22.11084961 200.80566406 22.68310547 201.22070312 C51.44201946 222.21795476 73.9218133 249.76675622 79.60742188 285.66699219 C80.32641271 291.77126012 80.33914121 297.85996239 80.3125 304 C80.30926727 305.01762924 80.30926727 305.01762924 80.30596924 306.05581665 C80.24751938 317.57060672 79.57400787 328.74641863 77 340 C76.81727539 340.80373047 76.63455078 341.60746094 76.44628906 342.43554688 C72.10232738 360.59601721 63.97142656 378.38664277 51 392 C50.18273437 392.90621094 49.36546875 393.81242187 48.5234375 394.74609375 C31.07535103 413.30076978 6.13460693 423.91222334 -19.27880859 425.16113281 C-49.82701614 425.54182342 -79.36974588 422.44594491 -103 401 C-103.81855469 400.26265625 -104.63710937 399.5253125 -105.48046875 398.765625 C-126.99493528 378.35189862 -139.0563603 348.36458029 -141 319 C-141.11574672 313.47790167 -141.09415162 307.96084709 -141.0625 302.4375 C-141.041875 297.343125 -141.02125 292.24875 -141 287 C-124.83 287 -108.66 287 -92 287 C-91.8453125 293.9609375 -91.8453125 293.9609375 -91.6875 301.0625 C-91.22662108 316.394734 -89.89458467 330.0132781 -83 344 C-82.37158203 345.27617188 -82.37158203 345.27617188 -81.73046875 346.578125 C-74.30594091 360.18619332 -61.85388171 369.80853104 -47.27734375 374.6953125 C-41.70738347 376.2757565 -36.38669234 376.45908775 -30.625 376.375 C-29.61058838 376.36412354 -28.59617676 376.35324707 -27.55102539 376.34204102 C-13.48532397 376.04262653 0.79323524 372.1890681 11.375 362.375 C19.56547191 353.25498845 24.49201093 342.63625642 28 331 C28.23460937 330.2575 28.46921875 329.515 28.7109375 328.75 C33.50543195 310.96173073 31.00834179 292.32133896 22.50390625 276.15625 C17.9558318 268.56521927 12.18138188 262.26981366 6 256 C5.31550781 255.30261719 4.63101563 254.60523438 3.92578125 253.88671875 C-11.63918929 239.11681547 -32.20876445 229.14014942 -51.4375 220.125 C-67.52322024 212.55023641 -82.30406272 203.34911001 -96 192 C-96.95261719 191.21238281 -97.90523438 190.42476562 -98.88671875 189.61328125 C-119.04164317 172.15692412 -131.01760881 147.55287355 -133 121 C-134.67599156 86.20953336 -125.90819622 53.45874426 -102.40625 27.08984375 C-76.27045869 -0.23743216 -36.67346121 -11.25979265 0 0 Z " fill="#000000" transform="translate(359,1107)"/>
<path d="M0 0 C14.19 0 28.38 0 43 0 C43 138.27 43 276.54 43 419 C29.14 419 15.28 419 1 419 C-0.91219585 417.08780415 -0.24435298 413.66354496 -0.31640625 411.12109375 C-0.33718735 410.4344313 -0.35796844 409.74776886 -0.37937927 409.04029846 C-0.44494143 406.83947065 -0.50379015 404.63852025 -0.5625 402.4375 C-0.60567892 400.94855486 -0.649293 399.45962227 -0.69335938 397.97070312 C-0.8006293 394.31393447 -0.90187772 390.65702682 -1 387 C-1.45528076 387.66169189 -1.91056152 388.32338379 -2.37963867 389.00512695 C-9.37641111 399.10111609 -16.39424162 407.56726941 -27 414 C-28.13501953 414.69222656 -28.13501953 414.69222656 -29.29296875 415.3984375 C-46.49532092 424.90727538 -69.79765219 426.11939354 -88.6875 421.5 C-101.36606277 417.67758829 -112.7027338 411.27242562 -123 403 C-123.98033203 402.23042969 -123.98033203 402.23042969 -124.98046875 401.4453125 C-151.87235267 379.4806391 -161.65940185 343.48552377 -165.25 310.4375 C-169.87831112 260.92421334 -165.44881395 206.93076182 -132.81640625 167.3515625 C-116.85451204 148.85738917 -96.3511209 138.11102513 -72 136 C-54.49203795 134.76630552 -35.44014801 139.26557395 -21.7734375 150.59765625 C-13.93557973 157.42087857 -5.69778252 165.60443496 -1 175 C-0.67 117.25 -0.34 59.5 0 0 Z M-99 200 C-113.33809143 219.98643048 -119.07530845 245.01710534 -119.203125 269.36328125 C-119.20882507 270.23534714 -119.21452515 271.10741302 -119.22039795 272.00590515 C-119.22978786 273.84547742 -119.23635781 275.68506605 -119.24023438 277.5246582 C-119.24984205 280.26741022 -119.28088247 283.00937937 -119.3125 285.75195312 C-119.40798669 301.53024101 -118.064392 317.32193213 -113.25 332.4375 C-112.99323486 333.26113037 -112.73646973 334.08476074 -112.47192383 334.93334961 C-107.65239369 349.75431071 -99.57819248 363.52249822 -85.84375 371.56640625 C-73.03729244 378.02240889 -59.25748025 380.30346653 -45.25 376.5 C-38.5732811 374.17873286 -33.36312672 370.5413573 -28 366 C-27.36578125 365.47792969 -26.7315625 364.95585938 -26.078125 364.41796875 C-8.59640694 348.58017372 -1.13042243 321.56401981 0.1227417 298.76715088 C0.30061846 293.81082796 0.32834019 288.85681837 0.31567383 283.89770508 C0.31252524 281.3330582 0.3360294 278.76958265 0.36132812 276.20507812 C0.46446463 249.32474463 -4.86107956 220.82296117 -23 200 C-23.46792969 199.39027344 -23.93585938 198.78054688 -24.41796875 198.15234375 C-31.11970499 189.61091522 -40.36429864 184.06601555 -51 182 C-69.36009962 179.93437579 -87.06807404 185.37376818 -99 200 Z " fill="#000000" transform="translate(1355,636)"/>
<path d="M0 0 C16.83 0 33.66 0 51 0 C52.75699219 7.81558594 54.51398437 15.63117187 56.32421875 23.68359375 C56.93475098 26.3994017 57.5452832 29.11520966 58.17431641 31.91331482 C60.9911655 44.4434015 63.80799865 56.97349177 66.62477684 69.5035944 C68.30583132 76.98156507 69.98689759 84.45953308 71.66796875 91.9375 C71.83848739 92.69602477 72.00900603 93.45454954 72.18469191 94.2360599 C76.94482212 115.41071392 81.7053876 136.58527002 86.466456 157.75971311 C87.59873796 162.79545435 88.7309837 167.83120373 89.86320496 172.86695862 C90.02189896 173.57277819 90.18059297 174.27859775 90.34409589 175.00580579 C91.13690754 178.53198166 91.92971444 182.05815859 92.72251797 185.58433628 C94.24087918 192.33756953 95.75931292 199.09078646 97.27792358 205.84396362 C97.85675171 208.41802951 98.43557862 210.99209567 99.0144043 213.56616211 C99.29790898 214.82688632 99.58141367 216.08761053 99.87350941 217.38653851 C101.2648394 223.57416885 102.65562835 229.76191994 104.04524231 235.94993591 C104.58875011 238.37010818 105.13226309 240.79027928 105.67578125 243.21044922 C105.94403056 244.4049661 106.21227987 245.59948298 106.48865795 246.83019733 C108.09447666 253.97811092 109.70439834 261.1250848 111.31806612 268.27122945 C112.55216726 273.73665704 113.78421593 279.20254466 115.01485014 284.66875392 C115.74743326 287.92213298 116.48153483 291.17515186 117.21772766 294.42771721 C118.02500796 297.99486548 118.82838382 301.56287179 119.63085938 305.13110352 C119.87231186 306.19340494 120.11376434 307.25570637 120.36253357 308.35019875 C120.57978592 309.31978712 120.79703827 310.2893755 121.02087402 311.28834534 C121.21109886 312.13088647 121.4013237 312.9734276 121.59731293 313.84150028 C122 316 122 316 122 319 C122.99 318.67 123.98 318.34 125 318 C125.82745912 316.1622284 125.82745912 316.1622284 126.26657104 313.85046387 C126.47272789 312.9503914 126.67888474 312.05031893 126.89128876 311.12297153 C127.10618202 310.1226839 127.32107529 309.12239626 127.54248047 308.09179688 C127.89846188 306.51099665 127.89846188 306.51099665 128.26163483 304.89826107 C129.05934958 301.34109606 129.83808658 297.78003449 130.6171875 294.21875 C131.18254767 291.6807319 131.7491141 289.14298225 132.31680298 286.60548401 C133.54096521 281.12547491 134.75567388 275.64343981 135.96411133 270.15994263 C137.72170353 262.18517516 139.4941272 254.21376308 141.27094698 246.24326003 C142.09921739 242.52774461 142.92696302 238.81211235 143.75457764 235.09645081 C144.00307264 233.98082218 144.00307264 233.98082218 144.25658774 232.8426556 C145.44768675 227.49370666 146.63602602 222.14414886 147.82305908 216.79429626 C152.48749937 195.77346029 157.18570417 174.76045572 161.9140625 153.75390625 C162.15477864 152.68436903 162.15477864 152.68436903 162.40035772 151.593225 C163.9957339 144.5048011 165.5917011 137.41651041 167.18820179 130.3283397 C169.98560217 117.90827268 172.77849569 105.48719411 175.57036972 93.06588364 C176.39569611 89.39460287 177.22150224 85.72343028 178.0473938 82.05227661 C180.78554401 69.87748933 183.51521417 57.70086696 186.23058796 45.52098238 C187.14058224 41.44028247 188.05184346 37.35986522 188.96303701 33.27943295 C189.97045426 28.76697119 190.97408576 24.25367633 191.97717285 19.74024963 C192.49570638 17.41721452 193.01437545 15.09420967 193.53320312 12.77124023 C193.88763992 11.17004617 193.88763992 11.17004617 194.24923706 9.53650475 C194.57500229 8.08200889 194.57500229 8.08200889 194.90734863 6.59812927 C195.09535286 5.75336753 195.28335709 4.90860579 195.47705841 4.0382452 C196 2 196 2 197 0 C213.83 0 230.66 0 248 0 C243.40578992 20.67394535 243.40578992 20.67394535 241.31225586 29.20581055 C241.07158197 30.19330795 240.83090809 31.18080536 240.58294106 32.19822693 C239.79530053 35.42814805 239.00507849 38.65743145 238.21484375 41.88671875 C237.64468084 44.22276206 237.07469366 46.55884827 236.50486755 48.89497375 C235.1298961 54.53038893 233.75331681 60.16540953 232.37606972 65.80026895 C230.58756245 73.11834641 228.80179391 80.43709177 227.01611328 87.75585938 C226.51738151 89.79988559 226.01864525 91.84391071 225.51990771 93.88793552 C225.18553879 95.25831362 224.85117311 96.62869251 224.51681066 97.99907219 C223.33430273 102.8454635 222.15146328 107.69177382 220.96850586 112.53805542 C214.69908307 138.22321561 208.44738323 163.91267524 202.20087051 189.60341644 C200.81918085 195.28593486 199.43729166 200.96840476 198.05541992 206.65087891 C196.39196518 213.4913009 194.72852934 220.33172749 193.06520081 227.17218018 C189.29060767 242.69490296 185.51419036 258.21718125 181.73685455 273.73923683 C179.95048861 281.08001181 178.16431611 288.42083386 176.37814713 295.76165676 C174.92875074 301.71836612 173.47925915 307.67505228 172.02954102 313.63168335 C166.67301372 335.6412364 161.31810639 357.65111416 156.0078125 379.671875 C155.63884607 381.20121024 155.26986848 382.73054278 154.90087891 384.25987244 C152.91623477 392.48643728 152.91623477 392.48643728 150.93835449 400.71463013 C150.10399773 404.19171579 149.26705111 407.66816876 148.4296875 411.14453125 C148.19259064 412.13745178 147.95549377 413.13037231 147.71121216 414.15338135 C147.49697601 415.0409613 147.28273987 415.92854126 147.06201172 416.84301758 C146.78778885 417.98629265 146.78778885 417.98629265 146.50802612 419.15266418 C146 421 146 421 145 423 C130.81 423 116.62 423 102 423 C90.24301942 375.10005033 78.50290572 327.19661179 66.9375 279.25 C59.51655406 248.48559325 52.03514383 217.73663592 44.5 187 C36.02185208 152.41667062 27.61118536 117.81757341 19.26379395 83.20244408 C18.41139199 79.66783746 17.55861404 76.13332159 16.70584106 72.59880447 C16.2900496 70.87480065 15.87449874 69.15073877 15.459198 67.42661667 C12.97367123 57.1080735 10.46141274 46.79662403 7.91601562 36.49267578 C7.40087476 34.40285318 6.88579847 32.31301467 6.37078857 30.22315979 C5.38209571 26.21141169 4.38741056 22.20121237 3.38946533 18.1917572 C2.94137686 16.37537277 2.49350943 14.55893379 2.04589844 12.74243164 C1.83785835 11.91361292 1.62981827 11.0847942 1.41547394 10.23085976 C1.13413227 9.08278375 1.13413227 9.08278375 0.84710693 7.91151428 C0.68260921 7.24897676 0.5181115 6.58643923 0.348629 5.90382481 C0 4 0 4 0 0 Z " fill="#000000" transform="translate(620,636)"/>
<path d="M0 0 C1.05960938 0.36222656 2.11921875 0.72445313 3.2109375 1.09765625 C26.57493534 9.95675569 45.96205988 31.08045971 56.09765625 53.53125 C67.13210622 79.16642677 70.55369223 106.47024906 70.39111328 134.18579102 C70.37502611 137.43223159 70.39107559 140.67742468 70.41015625 143.92382812 C70.4530366 185.78354659 61.62151743 227.29629666 31.5 257.875 C16.87894724 272.27567747 -2.21813257 282.13251733 -23 283 C-23.82371094 283.03996094 -24.64742187 283.07992188 -25.49609375 283.12109375 C-46.05637478 283.62838661 -64.5460227 277.35954036 -79.73046875 263.37890625 C-85.61521643 257.21055627 -90.62075414 250.29874311 -95 243 C-95.33 283.59 -95.66 324.18 -96 366 C-109.86 366 -123.72 366 -138 366 C-138 245.55 -138 125.1 -138 1 C-124.14 1 -110.28 1 -96 1 C-95.67 11.56 -95.34 22.12 -95 33 C-93.02 30.03 -91.04 27.06 -89 24 C-86.17329138 20.4933271 -83.12986028 17.23760074 -80 14 C-79.38511719 13.35933594 -78.77023437 12.71867187 -78.13671875 12.05859375 C-58.34546773 -6.88506622 -24.71231851 -8.66351396 0 0 Z M-65 51 C-65.99 51.70125 -66.98 52.4025 -68 53.125 C-87.63696494 70.32090576 -94.3219054 99.16498225 -96 124 C-97.19635348 158.63156003 -94.20038238 194.26001072 -70.77734375 221.59375 C-65.7984293 226.86244254 -60.47899317 230.76050342 -54 234 C-53.34 234.3403125 -52.68 234.680625 -52 235.03125 C-41.53327443 239.44689985 -27.35656026 238.06483153 -16.9609375 234.3203125 C-0.44367602 226.95509564 9.02744523 213.53800724 15.48901367 197.07104492 C29.10095443 160.02577915 29.29426193 109.6621309 12.79370117 73.41137695 C5.7914 58.9601373 -4.53677304 48.35335251 -19.7734375 43.03125 C-36.24201446 38.26286847 -51.40653204 40.65477037 -65 51 Z " fill="#000000" transform="translate(640,1252)"/>
<path d="M0 0 C30.63821641 24.24718518 48.77481857 57.72617115 53.45361328 96.45654297 C58.06073904 140.18647434 53.7241918 188.00561434 25.4375 223.67578125 C6.94293322 245.49383091 -15.4124362 263.26537348 -44.91015625 266.4453125 C-73.42414943 267.82940773 -99.33539234 262.34349352 -121.14257812 243.02270508 C-123.80485292 240.56738179 -126.37066302 238.02677374 -128.91015625 235.4453125 C-129.79316406 234.56101562 -130.67617187 233.67671875 -131.5859375 232.765625 C-160.442475 202.5178703 -169.89068266 160.20773905 -169.09375 119.49609375 C-168.38292772 96.87781705 -165.16669122 74.25777648 -155.91015625 53.4453125 C-155.6177002 52.7848291 -155.32524414 52.1243457 -155.02392578 51.44384766 C-148.52506138 37.05964857 -139.82069781 24.84033636 -128.91015625 13.4453125 C-128.21535156 12.68734375 -127.52054688 11.929375 -126.8046875 11.1484375 C-94.1143749 -23.38777618 -38.162406 -27.83166816 0 0 Z M-96.91015625 46.4453125 C-97.68488281 47.19554687 -98.45960937 47.94578125 -99.2578125 48.71875 C-110.0266882 59.83858391 -115.54826395 73.54483249 -118.91015625 88.4453125 C-119.07386719 89.16686523 -119.23757813 89.88841797 -119.40625 90.63183594 C-126.32813376 123.02453576 -123.99146934 161.50296288 -106.91015625 190.4453125 C-104.46220153 194.00460863 -101.80705897 197.24404477 -98.91015625 200.4453125 C-98.23339844 201.21488281 -97.55664062 201.98445313 -96.859375 202.77734375 C-87.17204257 213.17307343 -74.55102182 220.38705199 -60.2890625 221.68359375 C-43.20712856 222.1337418 -30.35608727 215.12259939 -18.18359375 203.6796875 C-17.43335938 202.94234375 -16.683125 202.205 -15.91015625 201.4453125 C-14.97042969 200.52492188 -14.97042969 200.52492188 -14.01171875 199.5859375 C7.32166807 176.99764557 8.84410001 143.26992271 8.22607422 114.00390625 C7.16245129 86.22009299 -1.05992598 61.49387052 -21.23828125 41.8046875 C-32.58977363 31.78085505 -45.12226035 27.0265457 -60.14453125 27.16796875 C-75.17030708 28.27463896 -86.47577459 36.19457596 -96.91015625 46.4453125 Z " fill="#000000" transform="translate(1218.91015625,1265.5546875)"/>
<path d="M0 0 C13.86 0 27.72 0 42 0 C42.029729 7.93897339 42.029729 7.93897339 42.06005859 16.03833008 C42.12712093 33.57243625 42.20466129 51.1064847 42.28752708 68.64052296 C42.33748938 79.26594947 42.38393311 89.8913689 42.421875 100.5168457 C42.45498316 109.78608863 42.49491584 119.05527374 42.54279006 128.32445258 C42.56786946 133.22505031 42.58970372 138.12561063 42.60334396 143.02625465 C42.61633507 147.65473612 42.63856589 152.283088 42.66738319 156.91149712 C42.67632776 158.59507455 42.68211775 160.27867276 42.68421364 161.96227264 C42.69706542 170.73105426 42.99912131 179.39657234 43.88320923 188.12480164 C43.95888449 188.88852673 44.03455975 189.65225183 44.1125282 190.43912011 C45.74823072 205.13934342 51.04856083 219.21342459 62.0546875 229.50390625 C70.39005823 235.91444237 80.53923986 239.03947617 91 238 C103.09777821 236.02789643 112.44312605 231.01694519 121.22265625 222.5390625 C123 221 123 221 125 221 C125.38285156 220.13181641 125.38285156 220.13181641 125.7734375 219.24609375 C127.1239206 216.77307534 128.67184081 215.08958354 130.625 213.0625 C151.31986598 190.19317346 159.07223291 158.09571205 159.20532227 128.05664062 C159.21491613 126.65646078 159.22492706 125.25628375 159.23532104 123.85610962 C159.26221296 120.07573024 159.28330695 116.29533857 159.30332303 112.51491737 C159.32528024 108.55643129 159.35262103 104.59798238 159.37937927 100.63952637 C159.42917515 93.15287771 159.47416226 85.66620826 159.51740164 78.17951918 C159.56688644 69.65226458 159.62176266 61.1250473 159.67708123 52.59782887 C159.79069994 35.06525244 159.89687072 17.53264148 160 0 C174.19 0 188.38 0 203 0 C203 90.42 203 180.84 203 274 C188.81 274 174.62 274 160 274 C159.67 258.82 159.34 243.64 159 228 C155.7 232.62 152.4 237.24 149 242 C145.21212777 246.54728768 141.16410802 250.80007762 137 255 C136.10410156 255.90878906 135.20820312 256.81757812 134.28515625 257.75390625 C115.68306518 275.64578533 93.66375184 279.56016886 68.625 279.27734375 C50.71536125 278.76542148 35.68321952 272.86029763 23 260 C22.06220703 259.07767578 22.06220703 259.07767578 21.10546875 258.13671875 C2.21364571 238.22141094 -0.49620899 210.20591462 -0.34057617 184.13818359 C-0.33972758 182.11584994 -0.34020955 180.09351537 -0.34190369 178.07118225 C-0.34275602 172.64051986 -0.32525524 167.21006077 -0.30418181 161.77944517 C-0.28528641 156.08202901 -0.28365452 150.38460697 -0.28010559 144.68716431 C-0.27082261 133.92480689 -0.24626012 123.16254211 -0.21605712 112.40022528 C-0.18239573 100.13645089 -0.16599772 87.87267181 -0.15097082 75.60886264 C-0.11970678 50.40584541 -0.06474214 25.20295499 0 0 Z " fill="#000000" transform="translate(1338,1253)"/>
<path d="M0 0 C13.86 0 27.72 0 42 0 C42 31.68 42 63.36 42 96 C70.05 96 98.1 96 127 96 C127 109.2 127 122.4 127 136 C98.95 136 70.9 136 42 136 C42.11985718 162.67388229 42.11985718 162.67388229 42.2578125 189.34765625 C42.31812404 200.23256518 42.37648575 211.11745866 42.421875 222.00244141 C42.45494794 229.93159271 42.49486213 237.86067596 42.54279006 245.78975189 C42.5679039 249.98316419 42.58972864 254.17653223 42.60334396 258.36999893 C42.616303 262.32790303 42.63850184 266.28565414 42.66738319 270.24347305 C42.6763521 271.68565197 42.68212373 273.12785544 42.68421364 274.57006073 C42.71281124 291.32735032 43.42243218 309.48695754 55.75390625 322.19140625 C67.64313188 331.7648175 85.84662281 329.80806125 100.125 328.3125 C112.65695465 326.52222076 123.85700263 322.46238756 135.01171875 316.55078125 C138 315 138 315 143 313 C143 329.5 143 346 143 363 C136.90429081 366.0478546 131.76491226 368.23502595 125.375 370.125 C124.57449219 370.37636719 123.77398438 370.62773438 122.94921875 370.88671875 C110.64742137 374.57532676 98.28075545 375.34422978 85.5 375.3125 C84.20191406 375.32861328 82.90382813 375.34472656 81.56640625 375.36132812 C59.3168296 375.3724418 39.85166447 368.08266793 23.63671875 352.79296875 C4.59260862 332.62031876 -0.363393 306.46205973 -0.22705078 279.72314453 C-0.22648506 278.14474495 -0.22680635 276.56634484 -0.22793579 274.98794556 C-0.22850404 270.74919294 -0.21683634 266.51055606 -0.20278788 262.27183008 C-0.19019144 257.82493348 -0.18910305 253.37803352 -0.18673706 248.93112183 C-0.18054827 240.53089534 -0.16417306 232.1307216 -0.14403808 223.73051822 C-0.11739253 212.36474663 -0.1066854 200.99896036 -0.09503365 189.63316536 C-0.07629028 171.75540415 -0.03642739 153.87775419 0 136 C-23.1 136 -46.2 136 -70 136 C-70 122.8 -70 109.6 -70 96 C-46.9 96 -23.8 96 0 96 C0 64.32 0 32.64 0 0 Z " fill="#000000" transform="translate(1671,1157)"/>
<path d="M0 0 C0 18.15 0 36.3 0 55 C-2.97 54.67 -5.94 54.34 -9 54 C-31.63478611 52.56265044 -51.7950161 56.24376217 -69.41796875 71.5703125 C-82.53120502 83.90984799 -91.90370896 98.49623197 -99.79513741 114.57131577 C-100.57409032 116.14147875 -101.36919923 117.70377482 -102.18345451 119.25592422 C-110.69500221 135.6809032 -111.29358219 151.44487451 -111.11447453 169.50073957 C-111.08587268 173.36578177 -111.10914202 177.23055072 -111.12632751 181.09561157 C-111.15111764 188.37672502 -111.13092812 195.65695115 -111.09355396 202.9379822 C-111.05318965 211.24313319 -111.06452664 219.54798018 -111.07967007 227.85318637 C-111.10962684 244.90253471 -111.06958209 261.95072309 -111 279 C-124.86 279 -138.72 279 -153 279 C-153 188.58 -153 98.16 -153 5 C-139.14 5 -125.28 5 -111 5 C-110.67 26.45 -110.34 47.9 -110 70 C-107.03 64.72 -104.06 59.44 -101 54 C-95.4720818 46.16878255 -89.57585695 38.96475172 -83 32 C-82.34257813 31.28972656 -81.68515625 30.57945313 -81.0078125 29.84765625 C-76.15437179 24.77006065 -70.8814691 20.81843071 -65 17 C-64.26523437 16.49726562 -63.53046875 15.99453125 -62.7734375 15.4765625 C-51.95970105 8.4532079 -39.48717653 4.21681429 -26.9375 1.5625 C-26.1964502 1.39862793 -25.45540039 1.23475586 -24.69189453 1.06591797 C-16.27986809 -0.53970448 -8.92591793 0 0 0 Z " fill="#000000" transform="translate(961,1248)"/>
<path d="M0 0 C13.86 0 27.72 0 42 0 C42 90.75 42 181.5 42 275 C28.14 275 14.28 275 0 275 C0 184.25 0 93.5 0 0 Z " fill="#000000" transform="translate(1000,780)"/>
<path d="M0 0 C13.86 0 27.72 0 42 0 C42 21.45 42 42.9 42 65 C28.14 65 14.28 65 0 65 C0 43.55 0 22.1 0 0 Z " fill="#000000" transform="translate(1000,638)"/>
</svg>
